<svg width="25" height="26" viewBox="0 0 25 26" fill="none" xmlns="http://www.w3.org/2000/svg">
<path d="M12.7559 10.7273V15.5682H19.6205C19.319 17.125 18.4145 18.4433 17.0578 19.3296L21.1974 22.4774C23.6093 20.2956 25.0008 17.091 25.0008 13.2842C25.0008 12.3979 24.9197 11.5455 24.7689 10.7274L12.7559 10.7273Z" fill="#4285F4"/>
<path d="M5.60565 15.3792L4.67201 16.0795L1.36719 18.6022C3.466 22.6817 7.76768 25.5 12.7538 25.5C16.1976 25.5 19.0849 24.3863 21.1954 22.4773L17.0557 19.3295C15.9193 20.0795 14.4699 20.5341 12.7538 20.5341C9.43743 20.5341 6.61977 18.3409 5.61087 15.3864L5.60565 15.3792Z" fill="#34A853"/>
<path d="M1.36819 7.39771C0.498562 9.07945 0 10.9772 0 12.9999C0 15.0226 0.498562 16.9204 1.36819 18.6021C1.36819 18.6134 5.61228 15.3748 5.61228 15.3748C5.35718 14.6248 5.20639 13.8294 5.20639 12.9998C5.20639 12.1701 5.35718 11.3747 5.61228 10.6247L1.36819 7.39771Z" fill="#FBBC05"/>
<path d="M12.754 5.47727C14.6326 5.47727 16.3023 6.11362 17.6358 7.34091L21.2884 3.76141C19.0736 1.73871 16.198 0.5 12.754 0.5C7.76794 0.5 3.466 3.30681 1.36719 7.39774L5.61115 10.625C6.61991 7.67043 9.43769 5.47727 12.754 5.47727Z" fill="#EA4335"/>
</svg>
